<svg width="16" height="10" viewBox="0 0 16 10" fill="none" xmlns="http://www.w3.org/2000/svg">
<path d="M8.11789 0.491582C7.9229 0.596781 7.80133 0.796817 7.80133 1.01439V4.40226H1.11191C0.774137 4.40226 0.5 4.67004 0.5 4.99998C0.5 5.32992 0.774137 5.5977 1.11191 5.5977H7.80133V8.98557C7.80133 9.20394 7.9229 9.40398 8.11789 9.50838C8.31289 9.61437 8.55113 9.6072 8.7396 9.49164L15.2144 5.50605C15.3923 5.39607 15.5 5.2056 15.5 4.99998C15.5 4.79436 15.3923 4.60389 15.2144 4.49391L8.7396 0.508318C8.64006 0.447749 8.52665 0.416668 8.41324 0.416668C8.31208 0.416668 8.21009 0.442171 8.11789 0.491582Z" fill="#3843ED"/>
</svg>
