<svg width="70" height="70" viewBox="0 0 70 70" fill="none" xmlns="http://www.w3.org/2000/svg">
<circle cx="35" cy="35" r="35" fill="#FFE6A3"/>
<mask id="mask0_1_524" style="mask-type:alpha" maskUnits="userSpaceOnUse" x="0" y="0" width="70" height="70">
<circle cx="35" cy="35" r="35" fill="white"/>
</mask>
<g mask="url(#mask0_1_524)">
<path d="M35 38.5915C34.1506 38.5915 33.4619 37.8925 33.4619 37.0302V33.934C33.4619 33.0718 34.1506 32.3728 35 32.3728C35.8494 32.3728 36.5381 33.0718 36.5381 33.934V37.0302C36.5381 37.8925 35.8495 38.5915 35 38.5915Z" fill="#5E6BF6"/>
<path d="M55.5134 51.7151H14.4865C13.6371 51.7151 12.9485 52.4141 12.9485 53.2763V71.5496C12.9485 72.4118 13.6371 73.1108 14.4865 73.1108H55.5133C56.3628 73.1108 57.0514 72.4118 57.0514 71.5496V53.2763C57.0515 52.4141 56.3629 51.7151 55.5134 51.7151Z" fill="#FFC864"/>
<path d="M55.5135 51.7151H35V73.1108H55.5135C56.3629 73.1108 57.0515 72.4118 57.0515 71.5496V53.2763C57.0515 52.414 56.3629 51.7151 55.5135 51.7151Z" fill="#FFC864"/>
<path d="M22.6101 38.5915C21.7607 38.5915 21.072 37.8925 21.072 37.0302V33.934C21.072 33.0718 21.7607 32.3728 22.6101 32.3728C23.4595 32.3728 24.1482 33.0718 24.1482 33.934V37.0302C24.1482 37.8925 23.4596 38.5915 22.6101 38.5915Z" fill="#5E6BF6"/>
<path d="M47.3899 38.5915C46.5405 38.5915 45.8518 37.8925 45.8518 37.0302V33.934C45.8518 33.0718 46.5405 32.3728 47.3899 32.3728C48.2394 32.3728 48.928 33.0718 48.928 33.934V37.0302C48.928 37.8925 48.2394 38.5915 47.3899 38.5915Z" fill="#3843ED"/>
<path d="M49.9561 26.0041C49.2546 24.6787 48.5633 23.5639 48.5341 23.5171C48.2864 23.1184 47.8543 22.8765 47.3899 22.8765C46.9255 22.8765 46.4934 23.1184 46.2457 23.5171C46.2166 23.5639 45.5252 24.6787 44.8238 26.0041C43.4629 28.5757 43.2885 29.605 43.2885 30.2144C43.2885 32.5106 45.1284 34.3786 47.39 34.3786C49.6516 34.3786 51.4916 32.5106 51.4916 30.2144C51.4915 29.6049 51.317 28.5757 49.9561 26.0041Z" fill="#FFC864"/>
<path d="M35.0001 32.3728L35 38.5915C35.8494 38.5915 36.5381 37.8925 36.5381 37.0302V33.934C36.5382 33.0718 35.8495 32.3728 35.0001 32.3728Z" fill="#3843ED"/>
<path d="M36.1443 23.517C35.8966 23.1182 35.4645 22.8764 35.0001 22.8764C34.5356 22.8764 34.1036 23.1182 33.8559 23.517C33.8268 23.5638 33.1354 24.6785 32.434 26.004C31.0731 28.5756 30.8987 29.6049 30.8987 30.2143C30.8987 32.5105 32.7386 34.3785 35.0002 34.3785C37.2618 34.3785 39.1018 32.5105 39.1018 30.2143C39.1018 29.6049 38.9273 28.5756 37.5665 26.004C36.8648 24.6787 36.1735 23.5638 36.1443 23.517Z" fill="#FFC864"/>
<path d="M37.5662 26.0041C36.8648 24.6787 36.1734 23.5639 36.1443 23.5171C35.8966 23.1184 35.4645 22.8765 35.0001 22.8765V34.3786C37.2617 34.3786 39.1017 32.5106 39.1017 30.2144C39.1016 29.6049 38.9271 28.5757 37.5662 26.0041Z" fill="#FFC864"/>
<path d="M37.2265 36.9079H32.7736C31.738 36.9079 30.8985 37.7601 30.8985 38.8112V50.8696C30.8985 51.9207 31.738 52.7728 32.7736 52.7728H37.2265C38.2621 52.7728 39.1016 51.9207 39.1016 50.8696V38.8112C39.1016 37.7601 38.2621 36.9079 37.2265 36.9079Z" fill="#8D8BED"/>
<path d="M24.8366 36.9079H20.3837C19.3481 36.9079 18.5086 37.7601 18.5086 38.8112V50.8696C18.5086 51.9207 19.3481 52.7728 20.3837 52.7728H24.8366C25.8722 52.7728 26.7117 51.9207 26.7117 50.8696V38.8112C26.7117 37.7601 25.8722 36.9079 24.8366 36.9079Z" fill="#8D8BED"/>
<path d="M49.6163 36.9079H45.1634C44.1278 36.9079 43.2883 37.7601 43.2883 38.8112V50.8696C43.2883 51.9207 44.1278 52.7728 45.1634 52.7728H49.6163C50.6519 52.7728 51.4914 51.9207 51.4914 50.8696V38.8112C51.4915 37.7601 50.6519 36.9079 49.6163 36.9079Z" fill="#6D6BE5"/>
<path d="M37.2264 36.9079H35V52.773H37.2264C38.2621 52.773 39.1016 51.9208 39.1016 50.8696V38.8112C39.1016 37.7601 38.2621 36.9079 37.2264 36.9079Z" fill="#6D6BE5"/>
<path d="M54.0403 48.7218H15.9598C13.5937 48.7218 11.6687 50.5061 11.6687 52.6993V56.7243C11.6687 57.8191 12.1883 58.8408 13.0944 59.5278C14.1191 60.3047 15.4825 60.5427 16.7412 60.1643L20.6239 58.9975C22.8677 58.3234 25.3391 58.3235 27.5826 58.9975L30.6474 59.9184C32.051 60.3403 33.5252 60.5511 34.9999 60.5511C36.4743 60.5509 37.9492 60.3402 39.3524 59.9184L42.4172 58.9975C44.6609 58.3232 47.1321 58.3234 49.3759 58.9975L53.2586 60.1643C54.5173 60.5424 55.8807 60.3045 56.9053 59.5278C57.8115 58.8408 58.331 57.8191 58.331 56.7243V52.6993C58.3313 50.5061 56.4064 48.7218 54.0403 48.7218Z" fill="#FF776F"/>
<path d="M54.0403 48.7218H35V60.5509C36.4744 60.5508 37.9493 60.3401 39.3525 59.9183L42.4173 58.9974C44.661 58.3231 47.1322 58.3233 49.376 58.9974L53.2587 60.1642C54.5174 60.5423 55.8808 60.3044 56.9054 59.5277C57.8116 58.8407 58.3311 57.819 58.3311 56.7242V52.6992C58.3313 50.5061 56.4064 48.7218 54.0403 48.7218Z" fill="#FF8A81"/>
<path d="M23.7544 23.517C23.5067 23.1182 23.0746 22.8764 22.6102 22.8764C22.1458 22.8764 21.7137 23.1182 21.466 23.517C21.4369 23.5638 20.7455 24.6785 20.0441 26.004C18.6831 28.5757 18.5085 29.6049 18.5085 30.2144C18.5085 32.5106 20.3485 34.3786 22.6101 34.3786C24.8717 34.3786 26.7117 32.5106 26.7117 30.2144C26.7117 29.605 26.5371 28.5757 25.1764 26.0041C24.4749 24.6787 23.7836 23.5638 23.7544 23.517Z" fill="#FFC864"/>
</g>
</svg>
