<svg width="10" height="11" viewBox="0 0 10 11" fill="none" xmlns="http://www.w3.org/2000/svg">
<path d="M9.60891 8.13732L6.89111 5.46285L9.60738 2.78837C10.1299 2.27543 10.1299 1.4406 9.60738 0.927666C9.0849 0.410219 8.24008 0.411724 7.7176 0.926162L4.99981 3.60064L2.28201 0.923153C1.75954 0.408715 0.913188 0.411724 0.390712 0.923153C-0.130237 1.43759 -0.130237 2.27243 0.390712 2.78536L3.11003 5.46285L0.396822 8.13281C-0.125654 8.64725 -0.125654 9.48208 0.396822 9.99351C0.658061 10.2522 0.99874 10.3801 1.34095 10.3801C1.68468 10.3801 2.02536 10.2522 2.2866 9.99502L4.99981 7.32355L7.71913 9.99953C7.98037 10.2567 8.32105 10.3846 8.66325 10.3846C9.00546 10.3846 9.34767 10.2552 9.60891 9.99953C10.1314 9.48509 10.1314 8.65176 9.60891 8.13732Z" fill="white"/>
</svg>
