<svg width="70" height="70" viewBox="0 0 70 70" fill="none" xmlns="http://www.w3.org/2000/svg">
<circle cx="35" cy="35" r="35" fill="#6D6BE5"/>
<mask id="mask0_1_596" style="mask-type:alpha" maskUnits="userSpaceOnUse" x="0" y="0" width="70" height="70">
<circle cx="35" cy="35" r="35" fill="white"/>
</mask>
<g mask="url(#mask0_1_596)">
<path d="M30.7279 71.75C27.0384 71.75 24.0368 68.7601 24.0368 65.085C24.0368 63.1061 22.4205 59.7461 20.4338 59.7461H2.41912C1.56635 59.7461 0.875 59.0574 0.875 58.208C0.875 57.3586 1.56635 56.6699 2.41912 56.6699H20.4338C24.1233 56.6699 27.125 61.4099 27.125 65.085C27.125 67.0639 28.7413 68.6738 30.7279 68.6738C32.7146 68.6738 34.3309 67.0639 34.3309 65.085V58.6182C34.3309 57.7687 35.0222 57.0801 35.875 57.0801C36.7278 57.0801 37.4191 57.7687 37.4191 58.6182V65.085C37.4191 68.7601 34.4175 71.75 30.7279 71.75Z" fill="#DAEFFB"/>
<path d="M37.4191 58.6182C37.4191 57.7687 36.7278 57.0801 35.875 57.0801V67.5885C36.8386 66.4335 37.4191 64.9506 37.4191 63.335V58.6182Z" fill="#A2D8F4"/>
<path d="M35.875 60.7715C33.8851 60.7715 32.272 59.1647 32.272 57.1826V53.2813C32.272 52.4319 32.9634 51.7432 33.8162 51.7432H37.9338C38.7866 51.7432 39.4779 52.4319 39.4779 53.2813V57.1826C39.4779 59.1647 37.8648 60.7715 35.875 60.7715Z" fill="#4E5AF2"/>
<path d="M37.9338 51.7432H35.875V60.7715C37.8649 60.7715 39.4779 59.1647 39.4779 57.1826V53.2813C39.4779 52.4319 38.7866 51.7432 37.9338 51.7432Z" fill="#3843ED"/>
<path d="M52.3456 49.2871H19.4044C14.012 49.2871 9.625 44.9172 9.625 39.5459C9.625 35.4372 12.1994 31.8215 16.0007 30.4212C16.4091 28.4165 17.4437 26.5862 18.9765 25.1858C20.7829 23.5357 23.1283 22.627 25.5809 22.627C26.6366 22.627 27.6702 22.7956 28.6661 23.1294C30.2991 21.4942 32.4939 20.5762 34.8456 20.5762C36.0818 20.5762 37.2874 20.8328 38.3992 21.3265C40.2325 18.9348 43.0897 17.5 46.1691 17.5C51.5615 17.5 55.9485 21.8699 55.9485 27.2412C55.9485 28.2844 55.7776 29.3196 55.447 30.3063C59.3669 31.6031 62.125 35.2756 62.125 39.5459C62.125 44.9172 57.738 49.2871 52.3456 49.2871Z" fill="#DAEFFB"/>
<path d="M38.3991 21.3265C37.5985 20.9708 36.7493 20.7391 35.875 20.6368V49.2871H52.3456C57.738 49.2871 62.125 44.9172 62.125 39.5459C62.125 35.2756 59.3669 31.6031 55.447 30.3063C55.7776 29.3196 55.9485 28.2844 55.9485 27.2412C55.9485 21.8699 51.5615 17.5 46.1691 17.5C43.0897 17.5 40.2326 18.9348 38.3991 21.3265Z" fill="#A2D8F4"/>
<path d="M43.5956 41.8018V47.9541C43.5956 52.1946 40.1321 55.6445 35.875 55.6445C31.6179 55.6445 28.1544 52.1946 28.1544 47.9541V41.8018H43.5956Z" fill="#FFDD90"/>
<path d="M35.875 55.6445C40.1321 55.6445 43.5956 52.1946 43.5956 47.9541V41.8018H35.875V55.6445Z" fill="#FFC864"/>
<path d="M30.2133 41.8018V35.6494C30.2133 34.8 30.9046 34.1113 31.7574 34.1113C32.6101 34.1113 33.3015 34.8 33.3015 35.6494V41.8018H30.2133Z" fill="#4E5AF2"/>
<path d="M38.4485 41.8018V35.6494C38.4485 34.8 39.1399 34.1113 39.9927 34.1113C40.8454 34.1113 41.5368 34.8 41.5368 35.6494V41.8018H38.4485Z" fill="#3843ED"/>
<path d="M44.1103 43.3398H27.6397C26.7869 43.3398 26.0956 42.6512 26.0956 41.8018C26.0956 40.9523 26.7869 40.2637 27.6397 40.2637H44.1103C44.9631 40.2637 45.6544 40.9523 45.6544 41.8018C45.6544 42.6512 44.9631 43.3398 44.1103 43.3398Z" fill="#FFF8E9"/>
<path d="M44.1103 40.2637H35.875V43.3398H44.1103C44.9631 43.3398 45.6544 42.6512 45.6544 41.8018C45.6544 40.9523 44.9631 40.2637 44.1103 40.2637Z" fill="#FFDD90"/>
<ellipse cx="35.875" cy="47.9541" rx="1.54412" ry="1.53809" fill="#4E5AF2"/>
<path d="M37.4191 47.9541C37.4191 47.1047 36.7278 46.416 35.875 46.416V49.4922C36.7278 49.4922 37.4191 48.8035 37.4191 47.9541Z" fill="#3843ED"/>
</g>
</svg>
