<svg width="18" height="18" viewBox="0 0 18 18" fill="none" xmlns="http://www.w3.org/2000/svg">
<path fill-rule="evenodd" clip-rule="evenodd" d="M5.39156 0.666H12.6166C15.4416 0.666 17.3332 2.64933 17.3332 5.59933V12.4085C17.3332 15.3502 15.4416 17.3327 12.6166 17.3327H5.39156C2.56656 17.3327 0.666565 15.3502 0.666565 12.4085V5.59933C0.666565 2.64933 2.56656 0.666 5.39156 0.666ZM8.99156 6.55017C8.5999 6.55017 8.2749 6.22433 8.2749 5.82517C8.2749 5.41683 8.5999 5.09183 9.00823 5.09183C9.40823 5.09183 9.73323 5.41683 9.73323 5.82517C9.73323 6.22433 9.40823 6.55017 8.99156 6.55017ZM9.7249 12.1502C9.7249 12.5502 9.3999 12.8752 8.99156 12.8752C8.59157 12.8752 8.26657 12.5502 8.26657 12.1502V8.46683C8.26657 8.066 8.59157 7.7335 8.99156 7.7335C9.3999 7.7335 9.7249 8.066 9.7249 8.46683V12.1502Z" fill="#D2D8E8"/>
</svg>
