<svg width="20" height="14" viewBox="0 0 20 14" fill="none" xmlns="http://www.w3.org/2000/svg">
<path fill-rule="evenodd" clip-rule="evenodd" d="M13.4652 3.8607C13.4652 5.81877 11.9043 7.38883 9.9575 7.38883C8.01075 7.38883 6.44976 5.81877 6.44976 3.8607C6.44976 1.90189 8.01075 0.333328 9.9575 0.333328C11.9043 0.333328 13.4652 1.90189 13.4652 3.8607ZM9.95751 13.6667C7.09819 13.6667 4.65672 13.2134 4.65672 11.4001C4.65672 9.58616 7.08252 9.11635 9.95751 9.11635C12.8168 9.11635 15.2583 9.56965 15.2583 11.3836C15.2583 13.1968 12.8325 13.6667 9.95751 13.6667ZM14.9642 3.92435C14.9642 4.92252 14.6665 5.8524 14.1442 6.62542C14.0905 6.70497 14.1382 6.81229 14.233 6.8288C14.3636 6.85132 14.4986 6.86408 14.6359 6.86783C16.0051 6.90385 17.2341 6.01751 17.5736 4.68311C18.0765 2.70102 16.5998 0.921573 14.7195 0.921573C14.515 0.921573 14.3195 0.943338 14.1293 0.982364C14.1031 0.988368 14.0755 1.00038 14.0606 1.02364C14.0427 1.05216 14.0561 1.09044 14.074 1.1152C14.6389 1.91149 14.9642 2.88264 14.9642 3.92435ZM17.2318 8.26047C18.1519 8.44134 18.757 8.81059 19.0077 9.3472C19.2196 9.78775 19.2196 10.2988 19.0077 10.7386C18.6242 11.5709 17.3878 11.8381 16.9072 11.9072C16.808 11.9222 16.7282 11.8359 16.7386 11.7361C16.9841 9.42976 15.0314 8.33627 14.5262 8.08485C14.5046 8.07359 14.5001 8.05633 14.5023 8.04582C14.5038 8.03832 14.5128 8.02631 14.5292 8.02406C15.6223 8.00379 16.7976 8.1539 17.2318 8.26047ZM5.36423 6.86775C5.50153 6.864 5.63584 6.85199 5.76716 6.82873C5.86193 6.81222 5.90968 6.7049 5.85596 6.62534C5.33364 5.85232 5.03592 4.92244 5.03592 3.92427C5.03592 2.88257 5.36125 1.91142 5.9261 1.11513C5.94401 1.09036 5.95669 1.05209 5.93953 1.02357C5.92461 1.00105 5.89625 0.988294 5.87088 0.982289C5.67986 0.943263 5.48437 0.921499 5.27992 0.921499C3.39957 0.921499 1.9229 2.70095 2.42657 4.68303C2.76607 6.01743 3.99501 6.90378 5.36423 6.86775ZM5.49743 8.04538C5.49967 8.05663 5.49519 8.07314 5.4743 8.08515C4.96839 8.33657 3.01567 9.43006 3.26116 11.7356C3.27161 11.8362 3.19251 11.9217 3.09327 11.9075C2.61274 11.8384 1.37634 11.5713 0.992807 10.7389C0.780148 10.2984 0.780148 9.78805 0.992807 9.3475C1.24352 8.81089 1.84792 8.44164 2.76794 8.26002C3.20296 8.1542 4.37743 8.0041 5.47131 8.02436C5.48773 8.02661 5.49594 8.03862 5.49743 8.04538Z" fill="#D2D8E8"/>
</svg>
