<svg width="177" height="257" viewBox="0 0 177 257" fill="none" xmlns="http://www.w3.org/2000/svg">
<path fill-rule="evenodd" clip-rule="evenodd" d="M118.588 128.874C118.588 128.874 146.311 142.164 152.357 147.985C158.135 153.548 152.357 255.999 152.357 255.999H49.5756C49.5756 255.999 49.5756 160.467 52.6822 153.743C57.5829 143.138 88.0692 127.684 88.0692 127.684L118.588 128.874Z" fill="#6D6BE5"/>
<path d="M125.615 132.341C125.615 132.341 118.589 164.512 117.492 256" stroke="#EDF3FF" stroke-width="0.5"/>
<path d="M81.0914 131.455C81.0914 131.455 73.3988 135.998 74.8197 256" stroke="#EDF3FF" stroke-width="0.5"/>
<path d="M63.2565 147.985C63.2565 147.985 57.6378 203.708 57.0326 256" stroke="#EDF3FF" stroke-width="0.5"/>
<path fill-rule="evenodd" clip-rule="evenodd" d="M118.588 128.874C118.588 128.874 110.487 177.361 111.093 255.999H81.0083C81.0083 255.999 77.4625 172.986 88.0692 127.684L118.588 128.874Z" fill="#EDF3FF"/>
<mask id="mask0_1_394" style="mask-type:alpha" maskUnits="userSpaceOnUse" x="101" y="0" width="53" height="50">
<path fill-rule="evenodd" clip-rule="evenodd" d="M153.519 0H101.257V49.1966H153.519V0Z" fill="white"/>
</mask>
<g mask="url(#mask0_1_394)">
<path fill-rule="evenodd" clip-rule="evenodd" d="M104.148 11.208C97.5557 22.602 102.618 37.8339 115.453 45.2296C128.288 52.6242 144.036 49.3828 150.628 37.9888C157.219 26.5949 152.159 11.363 139.323 3.9673C126.488 -3.42841 110.739 -0.18589 104.148 11.208Z" fill="#2C1817"/>
</g>
<path fill-rule="evenodd" clip-rule="evenodd" d="M95.4471 32.899C90.5346 41.3901 95.2301 53.2733 105.935 59.441C116.639 65.6076 129.298 63.7247 134.211 55.2337C139.122 46.7426 134.428 34.8594 123.723 28.6917C113.019 22.524 100.36 24.408 95.4471 32.899Z" fill="#FFCC8A"/>
<path fill-rule="evenodd" clip-rule="evenodd" d="M63.2564 67.2924C63.2564 89.0942 80.2698 106.767 101.256 106.767C122.243 106.767 139.257 89.0942 139.257 67.2924C139.257 45.4905 122.243 27.8175 101.256 27.8175C80.2698 27.8175 63.2564 45.4905 63.2564 67.2924Z" fill="#2C1817"/>
<path fill-rule="evenodd" clip-rule="evenodd" d="M49.5759 67.8173C49.5759 84.7559 60.241 98.487 73.398 98.487C86.5561 98.487 97.2212 84.7559 97.2212 67.8173C97.2212 50.8798 86.5561 37.1476 73.398 37.1476C60.241 37.1476 49.5759 50.8798 49.5759 67.8173Z" fill="#2C1817"/>
<path fill-rule="evenodd" clip-rule="evenodd" d="M88.0688 127.684L88.9877 87.1479L114.295 72.6696L118.588 128.874C118.588 128.874 100.362 143.171 88.0688 127.684Z" fill="#FEB38C"/>
<path fill-rule="evenodd" clip-rule="evenodd" d="M105.442 93.4568C105.442 93.4568 105.316 108.336 88.9876 109.762V93.4568H105.442Z" fill="#DF9772"/>
<path fill-rule="evenodd" clip-rule="evenodd" d="M69.7634 76.7914C72.9508 109.571 82.5013 105.837 98.096 99.1653C109.741 94.1832 116.95 81.1282 113.493 67.6083C110.034 54.0884 97.5333 46.2979 85.5718 50.2059C73.6102 54.115 68.4042 62.8024 69.7634 76.7914Z" fill="#FEB38C"/>
<path fill-rule="evenodd" clip-rule="evenodd" d="M111.093 73.077C111.093 77.1017 114.344 80.1819 118.353 79.9568C122.364 79.7318 125.614 76.2866 125.614 72.2618C125.614 68.2371 122.364 65.1569 118.353 65.3819C114.344 65.607 111.093 69.0522 111.093 73.077Z" fill="#FEB38C"/>
<path d="M122.304 70.4515C119.384 70.1968 116.371 71.376 114.401 73.5444C116.313 73.3915 118.42 74.091 119.875 75.336" stroke="#2C1817" stroke-width="0.5"/>
<path fill-rule="evenodd" clip-rule="evenodd" d="M85.5876 67.694C85.5079 68.3966 89.3632 69.4134 91.6859 69.6788C94.0087 69.9441 94.8723 69.4654 94.9542 68.7639C95.034 68.0612 92.2603 67.1676 89.9386 66.9022C87.6158 66.6369 85.6685 66.9914 85.5876 67.694Z" fill="#2C1817"/>
<path fill-rule="evenodd" clip-rule="evenodd" d="M85.1213 76.2607C84.9692 77.5885 85.3606 78.7231 85.9923 78.7963C86.6262 78.8685 87.2632 77.8507 87.4153 76.5229C87.5685 75.1951 87.1781 74.0594 86.5443 73.9872C85.9104 73.9151 85.2744 74.9329 85.1213 76.2607Z" fill="#2C1817"/>
<path fill-rule="evenodd" clip-rule="evenodd" d="M77.4511 66.7647C77.3714 67.4674 73.3842 67.5884 71.0614 67.323C68.7397 67.0577 68.0048 66.3975 68.0846 65.6949C68.1665 64.9933 71.0699 64.7481 73.3927 65.0135C75.7144 65.2777 77.532 66.0621 77.4511 66.7647Z" fill="#2C1817"/>
<path fill-rule="evenodd" clip-rule="evenodd" d="M75.9659 75.2148C75.8128 76.5426 75.1768 77.5604 74.5429 77.4883C73.9091 77.4161 73.5198 76.2804 73.673 74.9526C73.824 73.6248 74.461 72.607 75.0949 72.6792C75.7277 72.7524 76.1191 73.887 75.9659 75.2148Z" fill="#2C1817"/>
<path d="M80.9626 72.0493C79.9852 76.5454 77.6805 86.0606 78.2251 87.0297C78.7664 87.9913 80.4532 87.9934 81.0913 87.2112" stroke="#2C1817" stroke-width="0.5"/>
<path d="M83.7097 92.7292C83.7097 92.7292 82.1995 95.007 80.4819 95.0282C78.7643 95.0515 77.1413 93.313 77.1413 93.313" stroke="#2C1817" stroke-width="0.5"/>
<path fill-rule="evenodd" clip-rule="evenodd" d="M71.0159 51.2798C71.0159 51.2798 85.4226 65.4662 99.3995 66.5372L113.378 67.6081C113.378 67.6081 118.02 51.7553 111.093 47.0003C104.164 42.2464 71.0159 51.2798 71.0159 51.2798Z" fill="#2C1817"/>
<path d="M117.493 142.108C117.493 142.108 107.231 147.795 99.5136 146.589C91.7965 145.383 85.5866 139.047 85.5866 139.047" stroke="#2C1817" stroke-width="0.628743"/>
<path fill-rule="evenodd" clip-rule="evenodd" d="M3.62782 190.29H54.852L92.616 255.999H43.8486L3.62782 190.29Z" fill="#FFE6A3"/>
<path fill-rule="evenodd" clip-rule="evenodd" d="M127.504 228.131C124.215 227.578 88.9878 214.453 85.7005 213.9C86.2726 214.376 86.1801 215.233 85.5516 215.614C84.0126 216.547 76.102 211.705 76.2796 210.058C76.42 208.752 77.1783 206.962 77.9579 205.89C75.1863 206.123 72.2201 206.305 69.422 206.305C66.0389 206.305 65.2816 205.877 65.1785 204.36C65.1093 203.341 69.6581 202.786 75.4948 201.935C77.9366 201.578 81.8483 200.589 84.0552 201.673C100.371 209.689 128.83 215.734 134.693 217.274C137.163 221.506 134.693 228.131 127.504 228.131Z" fill="#FEB38C"/>
<path fill-rule="evenodd" clip-rule="evenodd" d="M152.357 147.985C152.357 147.985 165.243 156.369 176.942 237.585C178.959 251.575 127.387 231.864 127.387 231.864L129.435 215.997L152.195 221.004L152.357 147.985Z" fill="#6D6BE5"/>
<path fill-rule="evenodd" clip-rule="evenodd" d="M138.447 214.556L125.81 212.103L119.549 234.09L134.397 237.585C134.397 237.585 141.812 231.727 138.447 214.556Z" fill="#EDF3FF"/>
<path d="M159.611 220.602L129.436 215.997" stroke="#EDF3FF" stroke-width="0.5"/>
<path d="M149.408 150.947C142.99 156.206 136.089 162.312 135.165 170.55C134.604 175.559 142.98 204.613 147.82 218.803" stroke="#EDF3FF" stroke-width="0.5"/>
<path fill-rule="evenodd" clip-rule="evenodd" d="M-7.62939e-06 190.29H51.2241L88.9882 255.999H40.2219L-7.62939e-06 190.29Z" fill="#FFC864"/>
<path fill-rule="evenodd" clip-rule="evenodd" d="M31.6069 241.926C31.6069 241.926 23.3092 237.806 20.6291 233.349C17.949 228.891 18.5403 225.642 18.5403 222.412C18.5403 219.916 24.4068 206.815 26.7625 208.089C28.5163 209.038 25.1555 216.826 25.1555 216.826C25.1555 216.826 29.4437 208.242 31.2304 209.77C33.0161 211.3 27.8356 221.284 27.8356 221.284C27.8356 221.284 32.1227 214.33 33.9094 215.935C35.6962 217.539 30.1594 224.625 30.1594 224.625C30.1594 224.625 34.3274 219.678 35.994 221.58C37.6616 223.482 26.084 232.902 26.084 232.902L31.6069 241.926Z" fill="#FEB38C"/>
</svg>
