<svg width="36" height="30" viewBox="0 0 36 30" fill="none" xmlns="http://www.w3.org/2000/svg">
<g clip-path="url(#clip0_1_358)">
<path d="M20.1886 2.03506L17.5318 6.77267H22.8454L20.1886 2.03506Z" fill="#FFBF31"/>
<path d="M14.8357 2.02838H20.0488L18.9546 0.0772761C18 -0.0103555 16.9759 -0.023456 15.8824 0.0379746L14.8357 2.02838Z" fill="#8189AB"/>
<path d="M21.0879 0.424735C20.464 0.272998 19.8021 0.161917 19.1024 0.0914917L20.1886 2.02838L21.0879 0.424735Z" fill="#F8EBD8"/>
<path d="M21.2106 0.455231L20.3284 2.02838H24.6719C23.6927 1.31675 22.5389 0.792362 21.2106 0.455231Z" fill="#646C9A"/>
<path d="M25.3425 2.56921C25.3389 2.566 25.3353 2.56279 25.3317 2.55958C25.1242 2.37473 24.9073 2.19989 24.6811 2.03506H20.3284L22.9852 6.77268L25.3425 2.56921Z" fill="#867FFF"/>
<path fill-rule="evenodd" clip-rule="evenodd" d="M17.418 25.8032L15.8823 28.5196C16.8504 29.0037 17.6292 29.3024 18.2186 29.4157C18.5437 29.4781 18.973 29.5152 19.5062 29.5268L17.418 25.8032Z" fill="#000CC4"/>
<path fill-rule="evenodd" clip-rule="evenodd" d="M19.6475 29.5293C19.9743 29.5336 20.3376 29.5289 20.7375 29.5154L21.131 28.8137C21.3514 27.6037 21.604 26.5847 21.8889 25.7566H17.5318L19.6475 29.5293Z" fill="#867FFF"/>
<path fill-rule="evenodd" clip-rule="evenodd" d="M21.8911 25.7499C22.0042 25.4217 22.1224 25.1236 22.2456 24.8555C22.2605 24.8232 22.2753 24.7913 22.2902 24.7599L20.1886 21.0123L17.5318 25.7499H21.8911Z" fill="#FFBF2F"/>
<path fill-rule="evenodd" clip-rule="evenodd" d="M22.3548 24.6257C22.8101 23.6984 23.263 23.1714 23.7136 23.0446C23.9972 23.0491 24.2578 23.0532 24.4953 23.057L25.642 21.0123H20.3284L22.3548 24.6257Z" fill="#FF9C78"/>
<path fill-rule="evenodd" clip-rule="evenodd" d="M24.6339 23.0593C25.3467 23.0709 25.8357 23.0794 26.1009 23.085C26.3747 23.0907 26.6525 23.0847 26.9341 23.0669L25.7819 21.0123L24.6339 23.0593Z" fill="#C24C22"/>
<path fill-rule="evenodd" clip-rule="evenodd" d="M27.0686 23.0575C27.1199 23.0536 27.1713 23.0493 27.2228 23.0446C27.81 22.9279 28.2153 22.6507 28.4386 22.2131C28.6034 21.8903 28.6367 21.49 28.5383 21.0123H25.9217L27.0686 23.0575H27.0686Z" fill="#7F8098"/>
<path fill-rule="evenodd" clip-rule="evenodd" d="M28.5369 21.0056C28.502 20.8378 28.4509 20.6605 28.3836 20.4737C28.3031 20.2853 28.3031 20.069 28.3836 19.8247C28.4642 19.5804 28.6475 19.2891 28.9336 18.9508C29.0713 18.8127 29.1498 18.6723 29.1691 18.5297C29.1884 18.3871 29.1334 18.2518 29.0041 18.1239C29.2166 17.9657 29.3315 17.805 29.3488 17.6416L28.5785 16.268L25.9217 21.0056H28.5369Z" fill="#A6A7B9"/>
<path fill-rule="evenodd" clip-rule="evenodd" d="M25.7818 11.5237L23.125 16.2613H28.4386L25.7818 11.5237Z" fill="#FFBF31"/>
<path fill-rule="evenodd" clip-rule="evenodd" d="M28.9703 16.2613C29.0902 16.0766 29.3313 15.9883 29.6936 15.9964C30.1089 15.9912 30.4203 15.8389 30.6279 15.5396C30.8355 15.2403 30.7911 14.8308 30.4946 14.3111L30.1532 13.7026L28.7183 16.2613H28.9703Z" fill="#8189AB"/>
<path fill-rule="evenodd" clip-rule="evenodd" d="M30.0833 13.5779L28.9307 11.5237H25.9217L28.5785 16.2613L30.0833 13.5779Z" fill="#8189AB"/>
<path fill-rule="evenodd" clip-rule="evenodd" d="M28.9269 11.517L28.3369 10.4655C28.4996 10.1191 28.6062 9.79259 28.6567 9.48607C28.7073 9.17954 28.7294 8.81523 28.7231 8.39313C28.6962 7.91977 28.6108 7.44815 28.467 6.97827L25.9217 11.517H28.9269Z" fill="#464B60"/>
<path fill-rule="evenodd" clip-rule="evenodd" d="M28.4161 6.81955C28.4117 6.80615 28.4071 6.79276 28.4025 6.77936H23.1251L25.7819 11.517L28.4161 6.81955Z" fill="#F8EBD8"/>
<path fill-rule="evenodd" clip-rule="evenodd" d="M28.4002 6.77268C28.3783 6.70884 28.3553 6.64504 28.3313 6.58126L27.196 4.55689C26.7199 3.9189 26.133 3.28419 25.4354 2.65277L23.125 6.77268H28.4002Z" fill="#000CC4"/>
<path d="M12.4979 0.639894L9.70124 5.65619H15.2945L12.4979 0.639894Z" fill="#FFBF31"/>
<path d="M9.44734 9.58793L7.91681 13.195L12.216 10.9221L9.44734 9.58793Z" fill="#FF7E4F"/>
<path d="M10.0951 8.21174L9.20664 10.1683L11.6453 8.88467L10.0951 8.21174Z" fill="white"/>
<path d="M5.79404 5.64349L4.72475 7.50645L7.18347 6.42422L5.79404 5.64349Z" fill="#FF9C78"/>
<path d="M5.84967 15.4568L7.94238 17.0464L8.01984 15.3088L5.84967 15.4568Z" fill="#FB4A0A"/>
<path d="M10.2777 15.6568L7.95162 19.081L12.535 19.6874L10.2777 15.6568Z" fill="#464B60"/>
<path d="M10.9931 16.7446L15.5152 20.3903L15.8466 17.1898L10.9931 16.7446Z" fill="#F8EBD8"/>
<path d="M12.7448 13.1878L9.14383 15.4055L15.358 18.2542L12.7448 13.1878Z" fill="#BAB6FF"/>
<path d="M4.07034 1.90002L8.19415 4.87138L8.29608 1.21884L4.07034 1.90002Z" fill="#4751EF"/>
<path d="M0.241459 8.17871L2.95701 11.8365L4.38251 9.0264L0.241459 8.17871Z" fill="#F0D7B1"/>
<path d="M4.46762 10.9244L4.8254 14.6445L8.01947 11.9276L4.46762 10.9244Z" fill="#8189AB"/>
<path d="M12.4978 10.1222L10.2605 6.22064H14.7351L12.4978 10.1222Z" fill="#A6A7B9"/>
<path d="M15.7128 6.6957L12.3845 9.00438L18.4866 11.4062L15.7128 6.6957Z" fill="#FFDAA3"/>
<path d="M19.1062 11.0358L14.44 12.44L18.5523 15.9382L19.1062 11.0358Z" fill="#ACB1FF"/>
<path d="M16.7788 16.7862L14.2821 20.974L19.7677 18.8189L16.7788 16.7862Z" fill="#867FFF"/>
<path d="M15.4012 27.4427L12.7068 26.3166L16.9639 24.0796L15.4012 27.4427Z" fill="#D4BFA0"/>
<path d="M13.4433 2.22926L18.1615 7.43337L19.6228 3.46323L13.4433 2.22926Z" fill="#FF7E4F"/>
<path d="M22.9852 6.77936L20.3284 11.517H25.642L22.9852 6.77936Z" fill="#D4BFA0"/>
<path d="M22.9852 16.2613L20.3284 11.5237H25.642L22.9852 16.2613Z" fill="#9DA2BA"/>
<path d="M20.1886 11.517L17.5318 6.77936H22.8454L20.1886 11.517Z" fill="#7A83B9"/>
<path d="M20.1886 11.5237L17.5318 16.2613H22.8454L20.1886 11.5237Z" fill="#000CC4"/>
<path d="M20.1886 21.0056L17.5318 16.268H22.8454L20.1886 21.0056Z" fill="white"/>
<path d="M25.7818 21.0056L23.125 16.268H28.4386L25.7818 21.0056Z" fill="#FB4A0A"/>
<path d="M22.9852 16.268L20.3284 21.0056H25.642L22.9852 16.268Z" fill="#FF7E4F"/>
<path d="M17.392 25.7499L14.7352 21.0123H20.0488L17.392 25.7499Z" fill="#8189AB"/>
</g>
<defs>
<clipPath id="clip0_1_358">
<rect width="35.0943" height="30" fill="white"/>
</clipPath>
</defs>
</svg>
