<svg width="24" height="24" viewBox="0 0 24 24" fill="none" xmlns="http://www.w3.org/2000/svg">
<rect width="24" height="24" rx="12" fill="#FF5E55"/>
<path fill-rule="evenodd" clip-rule="evenodd" d="M12.7362 6.78467L13.9544 9.2185C14.0738 9.45744 14.3043 9.62312 14.5716 9.66145L17.2969 10.0537C17.9702 10.151 18.2382 10.967 17.7509 11.4346L15.7801 13.3283C15.5864 13.5145 15.4983 13.7822 15.5441 14.0451L16.0092 16.7185C16.1237 17.3799 15.4198 17.8845 14.818 17.5716L12.3821 16.3085C12.1433 16.1845 11.8573 16.1845 11.6179 16.3085L9.182 17.5716C8.58015 17.8845 7.87626 17.3799 7.9915 16.7185L8.4559 14.0451C8.50171 13.7822 8.41355 13.5145 8.21988 13.3283L6.24912 11.4346C5.76181 10.967 6.02976 10.151 6.70311 10.0537L9.42843 9.66145C9.69569 9.62312 9.92685 9.45744 10.0462 9.2185L11.2638 6.78467C11.5651 6.18289 12.4349 6.18289 12.7362 6.78467Z" stroke="white" stroke-width="1.5" stroke-linecap="round" stroke-linejoin="round"/>
</svg>
