<svg width="18" height="18" viewBox="0 0 18 18" fill="none" xmlns="http://www.w3.org/2000/svg">
<path fill-rule="evenodd" clip-rule="evenodd" d="M5.39175 0.66658H12.6167C15.4417 0.66658 17.3334 2.64991 17.3334 5.59991V12.4091C17.3334 15.3499 15.4417 17.3332 12.6167 17.3332H5.39175C2.56675 17.3332 0.666748 15.3499 0.666748 12.4091V5.59991C0.666748 2.64991 2.56675 0.66658 5.39175 0.66658ZM8.52508 11.4916L12.4834 7.53325C12.7667 7.24991 12.7667 6.79158 12.4834 6.49991C12.2001 6.21658 11.7334 6.21658 11.4501 6.49991L8.00841 9.94158L6.55008 8.48325C6.26675 8.19991 5.80008 8.19991 5.51675 8.48325C5.23341 8.76658 5.23341 9.22491 5.51675 9.51658L7.50008 11.4916C7.64175 11.6332 7.82508 11.6999 8.00841 11.6999C8.20008 11.6999 8.38341 11.6332 8.52508 11.4916Z" fill="#D2D8E8"/>
</svg>
