<svg width="18" height="16" viewBox="0 0 18 16" fill="none" xmlns="http://www.w3.org/2000/svg">
<path fill-rule="evenodd" clip-rule="evenodd" d="M10.8437 4.46868C10.8437 6.67181 9.04081 8.43735 6.79113 8.43735C4.54227 8.43735 2.73861 6.67181 2.73861 4.46868C2.73861 2.26554 4.54227 0.5 6.79113 0.5C9.04081 0.5 10.8437 2.26554 10.8437 4.46868ZM0.666687 12.9311C0.666687 10.8917 3.48796 10.3814 6.79113 10.3814C10.1122 10.3814 12.9156 10.9093 12.9156 12.9503C12.9156 14.9897 10.0943 15.5 6.79113 15.5C3.47002 15.5 0.666687 14.9722 0.666687 12.9311ZM12.4779 4.54062C12.4779 5.66255 12.1338 6.70942 11.5304 7.57902C11.4676 7.66845 11.523 7.78903 11.6323 7.80819C11.784 7.83295 11.9397 7.84812 12.0987 7.85131C13.6806 7.89204 15.1002 6.89468 15.4924 5.39265C16.0738 3.16396 14.368 1.16286 12.1949 1.16286C11.9593 1.16286 11.7334 1.18681 11.5133 1.23073C11.4831 1.23712 11.4505 1.25149 11.4342 1.27705C11.413 1.30979 11.4285 1.35211 11.4497 1.38006C12.1028 2.2768 12.4779 3.36839 12.4779 4.54062ZM15.0977 9.41858C16.161 9.62221 16.8598 10.0366 17.1493 10.6411C17.3947 11.1362 17.3947 11.7112 17.1493 12.2062C16.7065 13.1421 15.2779 13.4432 14.7227 13.5206C14.6077 13.5366 14.5155 13.4408 14.5278 13.3274C14.8115 10.7338 12.5553 9.50402 11.9715 9.22135C11.947 9.20777 11.9413 9.18861 11.9438 9.17583C11.9454 9.16784 11.956 9.15507 11.9748 9.15267C13.2378 9.12872 14.5963 9.2988 15.0977 9.41858Z" fill="#D2D8E8"/>
</svg>
