<svg width="18" height="18" viewBox="0 0 18 18" fill="none" xmlns="http://www.w3.org/2000/svg">
<path fill-rule="evenodd" clip-rule="evenodd" d="M7.92031 1.93249C7.3617 1.93249 6.88646 2.32067 6.75306 2.84388H11.2386C11.1052 2.32067 10.63 1.93249 10.0714 1.93249H7.92031ZM12.5059 2.84388H14.1568C15.9076 2.84388 17.3334 4.28691 17.3334 6.05905C17.3334 6.05905 17.2833 6.80926 17.2667 7.85398C17.265 7.93668 17.225 8.01769 17.1591 8.06663C16.7581 8.36283 16.3912 8.60756 16.3579 8.62444C14.9738 9.5527 13.3655 10.2059 11.6522 10.5308C11.5405 10.5527 11.4304 10.4945 11.3737 10.3949C10.8935 9.56283 9.99635 9.02106 8.99585 9.02106C8.00202 9.02106 7.09657 9.55692 6.60216 10.3898C6.54463 10.4877 6.43624 10.5443 6.32535 10.5232C4.62617 10.1974 3.01786 9.54511 1.64217 8.63288L0.841775 8.07592C0.775075 8.03372 0.733387 7.95777 0.733387 7.87339C0.708375 7.44301 0.666687 6.05905 0.666687 6.05905C0.666687 4.28691 2.0924 2.84388 3.84328 2.84388H5.48576C5.64418 1.62025 6.66969 0.666672 7.92031 0.666672H10.0714C11.322 0.666672 12.3475 1.62025 12.5059 2.84388ZM17.0499 9.67937L17.0165 9.69624C15.3324 10.827 13.3063 11.5781 11.1803 11.8903C10.8801 11.9325 10.58 11.7384 10.4966 11.4346C10.3132 10.7427 9.72122 10.287 9.01253 10.287H9.00419H8.98752C8.27883 10.287 7.68687 10.7427 7.50344 11.4346C7.42006 11.7384 7.11992 11.9325 6.81977 11.8903C4.6937 11.5781 2.66769 10.827 0.983514 9.69624C0.975177 9.6878 0.891802 9.63717 0.825102 9.67937C0.750064 9.72156 0.750064 9.82282 0.750064 9.82282L0.808427 14.1266C0.808427 15.8987 2.2258 17.3333 3.97668 17.3333H14.015C15.7659 17.3333 17.1833 15.8987 17.1833 14.1266L17.25 9.82282C17.25 9.82282 17.25 9.72156 17.1749 9.67937C17.1333 9.65405 17.0832 9.66249 17.0499 9.67937ZM9.62116 13.2152C9.62116 13.5696 9.34603 13.8481 8.99585 13.8481C8.65401 13.8481 8.37054 13.5696 8.37054 13.2152V12.1266C8.37054 11.7806 8.65401 11.4937 8.99585 11.4937C9.34603 11.4937 9.62116 11.7806 9.62116 12.1266V13.2152Z" fill="#D2D8E8"/>
</svg>
